<svg width="13" height="9" viewBox="0 0 13 9" fill="none" xmlns="http://www.w3.org/2000/svg">
<path opacity="0.4" d="M6.56778 4.191C6.56778 4.763 6.48545 5.29167 6.32078 5.777C6.15611 6.25367 5.92645 6.66967 5.63178 7.025C5.34578 7.37167 5.00345 7.64467 4.60478 7.844C4.20611 8.03467 3.77278 8.13 3.30478 8.13C2.83678 8.13 2.40345 8.03467 2.00478 7.844C1.60611 7.64467 1.25945 7.37167 0.964781 7.025C0.678781 6.66967 0.453448 6.25367 0.288781 5.777C0.124115 5.29167 0.0417813 4.763 0.0417813 4.191C0.0417813 3.619 0.124115 3.09467 0.288781 2.618C0.453448 2.13267 0.678781 1.71667 0.964781 1.37C1.25945 1.01467 1.60611 0.737333 2.00478 0.538C2.40345 0.338667 2.83678 0.239 3.30478 0.239C3.77278 0.239 4.20611 0.338667 4.60478 0.538C5.00345 0.737333 5.34578 1.01467 5.63178 1.37C5.92645 1.71667 6.15611 2.13267 6.32078 2.618C6.48545 3.09467 6.56778 3.619 6.56778 4.191ZM5.67078 4.191C5.67078 3.723 5.61011 3.29833 5.48878 2.917C5.37611 2.53567 5.21578 2.21067 5.00778 1.942C4.79978 1.66467 4.54845 1.45233 4.25378 1.305C3.96778 1.149 3.65145 1.071 3.30478 1.071C2.94945 1.071 2.62445 1.149 2.32978 1.305C2.04378 1.45233 1.79678 1.66467 1.58878 1.942C1.38078 2.21067 1.21611 2.53567 1.09478 2.917C0.982115 3.29833 0.925781 3.723 0.925781 4.191C0.925781 4.659 0.982115 5.08367 1.09478 5.465C1.21611 5.84633 1.38078 6.17567 1.58878 6.453C1.79678 6.72167 2.04378 6.92967 2.32978 7.077C2.62445 7.22433 2.94945 7.298 3.30478 7.298C3.65145 7.298 3.96778 7.22433 4.25378 7.077C4.54845 6.92967 4.79978 6.72167 5.00778 6.453C5.21578 6.17567 5.37611 5.84633 5.48878 5.465C5.61011 5.08367 5.67078 4.659 5.67078 4.191ZM12.5768 7.194V8H8.16983V7.194H10.0158V1.63C9.93783 1.734 9.81649 1.84667 9.65183 1.968C9.48716 2.08933 9.30083 2.202 9.09283 2.306C8.89349 2.41 8.68549 2.49667 8.46883 2.566C8.25216 2.63533 8.06149 2.67 7.89683 2.67V1.812C8.09616 1.812 8.31283 1.75567 8.54683 1.643C8.78949 1.53033 9.01483 1.40033 9.22283 1.253C9.43949 1.10567 9.62149 0.967 9.76883 0.837C9.91616 0.707 9.99849 0.620333 10.0158 0.576999H10.9258V7.194H12.5768Z" fill="white"/>
</svg>
