<svg width="17" height="16" viewBox="0 0 17 16" fill="none" xmlns="http://www.w3.org/2000/svg">
<path d="M11.3455 4.80002C10.6642 4.79768 9.98916 4.9297 9.35895 5.18853C8.72874 5.44736 8.15575 5.82791 7.67277 6.30842C7.18979 6.78892 6.80629 7.35995 6.54423 7.98882C6.28216 8.61769 6.14667 9.29206 6.14551 9.97335V15.2C6.14551 15.4122 6.22979 15.6157 6.37982 15.7657C6.52985 15.9157 6.73333 16 6.94551 16H8.81217C9.02435 16 9.22783 15.9157 9.37786 15.7657C9.52789 15.6157 9.61217 15.4122 9.61217 15.2V9.97335C9.612 9.73104 9.66289 9.49141 9.76154 9.27009C9.86018 9.04877 10.0044 8.85072 10.1847 8.68886C10.365 8.52699 10.5774 8.40494 10.808 8.33067C11.0387 8.2564 11.2824 8.23157 11.5233 8.2578C11.9553 8.31221 12.3523 8.52328 12.639 8.85096C12.9258 9.17865 13.0823 9.60017 13.0788 10.0356V15.2C13.0788 15.4122 13.1631 15.6157 13.3132 15.7657C13.4632 15.9157 13.6667 16 13.8788 16H15.7455C15.9577 16 16.1612 15.9157 16.3112 15.7657C16.4612 15.6157 16.5455 15.4122 16.5455 15.2V9.97335C16.5443 9.29206 16.4089 8.61769 16.1468 7.98882C15.8847 7.35995 15.5012 6.78892 15.0182 6.30842C14.5353 5.82791 13.9623 5.44736 13.3321 5.18853C12.7019 4.9297 12.0268 4.79768 11.3455 4.80002Z" fill="#314C5F"/>
<path d="M3.74541 5.60004H1.34541C0.903582 5.60004 0.54541 5.95821 0.54541 6.40004V15.2C0.54541 15.6419 0.903582 16 1.34541 16H3.74541C4.18724 16 4.54541 15.6419 4.54541 15.2V6.40004C4.54541 5.95821 4.18724 5.60004 3.74541 5.60004Z" fill="#314C5F"/>
<path d="M2.54541 4C3.64998 4 4.54541 3.10457 4.54541 2C4.54541 0.89543 3.64998 0 2.54541 0C1.44084 0 0.54541 0.89543 0.54541 2C0.54541 3.10457 1.44084 4 2.54541 4Z" fill="#314C5F"/>
</svg>
