<svg width="163" height="631" viewBox="0 0 163 631" fill="none" xmlns="http://www.w3.org/2000/svg">
<path d="M-7.92742e-06 630.927L-7.92742e-06 589.209L107.5 545.146V543.271L-7.92742e-06 499.209L-7.92742e-06 457.49L160 457.49V490.302H55.8594V491.63L159.219 533.037V555.38L55.4687 596.787V598.115H160V630.927H-7.92742e-06ZM160 429.619L-7.92742e-06 429.619L-7.92742e-06 321.806H27.8906L27.8906 395.791H66.0156L66.0156 327.353L93.9062 327.353L93.9062 395.791H132.109L132.109 321.494H160L160 429.619ZM-7.92742e-06 161.084L160 161.084V190.302L59.2969 259.912V261.084L160 261.084V294.912L-7.92742e-06 294.912L-7.92742e-06 265.224L100.625 196.162V194.755L-7.92742e-06 194.755L-7.92742e-06 161.084ZM-7.92742e-06 34.3062L-7.92742e-06 0.478065H103.906C115.573 0.478065 125.781 3.26452 134.531 8.83743C143.281 14.3583 150.104 22.0926 155 32.0406C159.844 41.9885 162.266 53.577 162.266 66.8062C162.266 80.0874 159.844 91.702 155 101.65C150.104 111.598 143.281 119.332 134.531 124.853C125.781 130.374 115.573 133.134 103.906 133.134L-7.92742e-06 133.134L-7.92742e-06 99.3062H101.016C107.109 99.3062 112.526 97.9781 117.266 95.3218C122.005 92.6135 125.729 88.8114 128.437 83.9156C131.146 79.0197 132.5 73.3166 132.5 66.8062C132.5 60.2437 131.146 54.5406 128.437 49.6968C125.729 44.801 122.005 41.0249 117.266 38.3687C112.526 35.6604 107.109 34.3062 101.016 34.3062H-7.92742e-06Z" fill="#1A1B1F" fill-opacity="0.23"/>
</svg>
