<svg width="22" height="17" viewBox="0 0 22 17" fill="none" xmlns="http://www.w3.org/2000/svg">
<path d="M1.3276 9.55777L17.8795 9.55777L12.2585 15.1788C12.1581 15.277 12.0782 15.3942 12.0233 15.5235C11.9685 15.6528 11.9399 15.7917 11.9391 15.9322C11.9383 16.0726 11.9654 16.2118 12.0188 16.3418C12.0722 16.4717 12.1509 16.5897 12.2502 16.689C12.3495 16.7883 12.4676 16.867 12.5975 16.9203C12.7274 16.9737 12.8666 17.0008 13.0071 17C13.1475 16.9992 13.2865 16.9705 13.4158 16.9157C13.5451 16.8608 13.6622 16.7809 13.7604 16.6804L21.1942 9.24661C21.3933 9.04746 21.5052 8.77739 21.5052 8.49579C21.5052 8.2142 21.3933 7.94413 21.1942 7.74498L13.7604 0.311157C13.6619 0.212376 13.5448 0.134035 13.4159 0.0806368C13.287 0.0272383 13.1488 -0.000166043 13.0093 -1.49173e-06C12.7993 4.33861e-05 12.594 0.0623512 12.4194 0.179046C12.2448 0.29574 12.1088 0.461581 12.0284 0.655604C11.948 0.849626 11.927 1.06312 11.968 1.26909C12.0089 1.47507 12.11 1.66427 12.2585 1.81279L17.8795 7.43382L1.3276 7.43382C1.04595 7.43382 0.77583 7.54571 0.576671 7.74487C0.377513 7.94403 0.265626 8.21414 0.265626 8.4958C0.265627 8.77745 0.377513 9.04757 0.576672 9.24673C0.775831 9.44589 1.04595 9.55777 1.3276 9.55777Z" fill="white"/>
</svg>
