<svg width="38" height="30" viewBox="0 0 38 30" fill="none" xmlns="http://www.w3.org/2000/svg">
<path d="M2.18593 16.7388H31.02L21.228 26.5309C21.053 26.702 20.9138 26.906 20.8183 27.1313C20.7227 27.3566 20.6729 27.5986 20.6715 27.8433C20.6702 28.088 20.7174 28.3305 20.8104 28.5568C20.9034 28.7831 21.0404 28.9887 21.2135 29.1617C21.3865 29.3347 21.5921 29.4717 21.8185 29.5647C22.0448 29.6577 22.2873 29.7048 22.532 29.7034C22.7767 29.702 23.0187 29.6521 23.2439 29.5566C23.4692 29.461 23.6733 29.3217 23.8443 29.1468L36.7943 16.1968C37.1411 15.8499 37.3359 15.3794 37.3359 14.8888C37.3359 14.3983 37.1411 13.9278 36.7943 13.5809L23.8443 0.630918C23.6727 0.458837 23.4687 0.322365 23.2442 0.229343C23.0196 0.136321 22.7789 0.0885819 22.5359 0.0888685C22.1701 0.0889466 21.8125 0.197489 21.5083 0.400775C21.2041 0.60406 20.9671 0.892961 20.8271 1.23096C20.6871 1.56895 20.6505 1.94086 20.7218 2.29967C20.7932 2.65849 20.9693 2.98809 21.228 3.24681L31.02 13.0388H2.18593C1.69528 13.0388 1.22473 13.2338 0.877789 13.5807C0.530847 13.9276 0.335938 14.3982 0.335938 14.8888C0.335938 15.3795 0.530847 15.85 0.877789 16.197C1.22473 16.5439 1.69528 16.7388 2.18593 16.7388Z" fill="white"/>
</svg>
