<svg width="22" height="18" viewBox="0 0 22 18" fill="none" xmlns="http://www.w3.org/2000/svg">
<path d="M20.7372 8.10221L4.18559 8.19966L9.77343 2.54563C9.87327 2.44683 9.95251 2.32921 10.0066 2.19957C10.0606 2.06993 10.0885 1.93085 10.0884 1.79039C10.0883 1.64993 10.0604 1.51088 10.0063 1.38128C9.9521 1.25169 9.87277 1.13412 9.77285 1.0354C9.67294 0.936671 9.55444 0.858746 9.4242 0.806134C9.29397 0.753523 9.15459 0.72727 9.01414 0.728895C8.87369 0.730521 8.73495 0.759992 8.60597 0.815603C8.47699 0.871214 8.36032 0.951859 8.26272 1.05287L0.87279 8.53033C0.674876 8.73065 0.564627 9.00137 0.566285 9.28297C0.567943 9.56456 0.681372 9.83396 0.881631 10.0319L8.35909 17.4219C8.4582 17.5201 8.57573 17.5977 8.70494 17.6504C8.83415 17.703 8.97248 17.7296 9.11199 17.7286C9.322 17.7273 9.5269 17.6638 9.70081 17.5461C9.87472 17.4284 10.0098 17.2617 10.089 17.0672C10.1683 16.8727 10.188 16.6591 10.1459 16.4534C10.1037 16.2477 10.0015 16.0591 9.85212 15.9114L4.19809 10.3236L20.7497 10.2261C21.0314 10.2245 21.3008 10.111 21.4988 9.91066C21.6968 9.71033 21.8071 9.43956 21.8054 9.15791C21.8038 8.87627 21.6903 8.60681 21.49 8.40883C21.2897 8.21085 21.0189 8.10055 20.7372 8.10221Z" fill="white"/>
</svg>
