<svg width="19" height="19" viewBox="0 0 19 19" fill="none" xmlns="http://www.w3.org/2000/svg">
<path d="M16.954 8.18145H11.2234V2.24237C11.2234 1.39192 10.5347 0.703125 9.68446 0.703125C8.83418 0.703125 8.14552 1.39192 8.14552 2.24237V8.18145H2.03191C1.18866 8.18145 0.5 8.87025 0.5 9.7207C0.5 10.5711 1.18866 11.2599 2.03894 11.2599H8.15255V17.1639C8.15255 18.0143 8.84121 18.7031 9.69149 18.7031C10.5418 18.7031 11.2304 18.0143 11.2304 17.1639V11.2599H16.9611C17.8113 11.2599 18.5 10.5711 18.5 9.7207C18.4895 8.87025 17.8043 8.18145 16.954 8.18145Z" fill="#05AEB5"/>
</svg>
