<svg width="14" height="9" viewBox="0 0 14 9" fill="none" xmlns="http://www.w3.org/2000/svg">
<path opacity="0.4" d="M6.56778 4.78426C6.56778 5.35626 6.48545 5.88493 6.32078 6.37026C6.15611 6.84693 5.92645 7.26293 5.63178 7.61826C5.34578 7.96493 5.00345 8.23793 4.60478 8.43726C4.20611 8.62793 3.77278 8.72326 3.30478 8.72326C2.83678 8.72326 2.40345 8.62793 2.00478 8.43726C1.60611 8.23793 1.25945 7.96493 0.964781 7.61826C0.678781 7.26293 0.453448 6.84693 0.288781 6.37026C0.124115 5.88493 0.0417813 5.35626 0.0417813 4.78426C0.0417813 4.21226 0.124115 3.68793 0.288781 3.21126C0.453448 2.72593 0.678781 2.30993 0.964781 1.96326C1.25945 1.60793 1.60611 1.3306 2.00478 1.13126C2.40345 0.931928 2.83678 0.832262 3.30478 0.832262C3.77278 0.832262 4.20611 0.931928 4.60478 1.13126C5.00345 1.3306 5.34578 1.60793 5.63178 1.96326C5.92645 2.30993 6.15611 2.72593 6.32078 3.21126C6.48545 3.68793 6.56778 4.21226 6.56778 4.78426ZM5.67078 4.78426C5.67078 4.31626 5.61011 3.89159 5.48878 3.51026C5.37611 3.12893 5.21578 2.80393 5.00778 2.53526C4.79978 2.25793 4.54845 2.04559 4.25378 1.89826C3.96778 1.74226 3.65145 1.66426 3.30478 1.66426C2.94945 1.66426 2.62445 1.74226 2.32978 1.89826C2.04378 2.04559 1.79678 2.25793 1.58878 2.53526C1.38078 2.80393 1.21611 3.12893 1.09478 3.51026C0.982115 3.89159 0.925781 4.31626 0.925781 4.78426C0.925781 5.25226 0.982115 5.67693 1.09478 6.05826C1.21611 6.43959 1.38078 6.76893 1.58878 7.04626C1.79678 7.31493 2.04378 7.52293 2.32978 7.67026C2.62445 7.8176 2.94945 7.89126 3.30478 7.89126C3.65145 7.89126 3.96778 7.8176 4.25378 7.67026C4.54845 7.52293 4.79978 7.31493 5.00778 7.04626C5.21578 6.76893 5.37611 6.43959 5.48878 6.05826C5.61011 5.67693 5.67078 5.25226 5.67078 4.78426ZM7.96183 8.59326C7.96183 8.2726 7.98783 7.9606 8.03983 7.65726C8.10049 7.34526 8.20883 7.04626 8.36483 6.76026C8.52949 6.47426 8.75049 6.20126 9.02783 5.94126C9.31383 5.67259 9.67783 5.42126 10.1198 5.18726C10.3538 5.06593 10.6052 4.94459 10.8738 4.82326C11.1512 4.69326 11.4068 4.55026 11.6408 4.39426C11.8748 4.23826 12.0655 4.06493 12.2128 3.87426C12.3688 3.68359 12.4468 3.45826 12.4468 3.19826C12.4468 3.03359 12.4078 2.86893 12.3298 2.70426C12.2605 2.53959 12.1522 2.39226 12.0048 2.26226C11.8662 2.13226 11.6885 2.02826 11.4718 1.95026C11.2638 1.87226 11.0212 1.83326 10.7438 1.83326C10.4578 1.83326 10.1978 1.87659 9.96383 1.96326C9.73849 2.04126 9.53916 2.13659 9.36583 2.24926C9.19249 2.36193 9.04516 2.48326 8.92383 2.61326C8.81116 2.73459 8.72449 2.83426 8.66383 2.91226L8.07883 2.27526C8.13083 2.22326 8.23049 2.12793 8.37783 1.98926C8.52516 1.85059 8.71583 1.71193 8.94983 1.57326C9.19249 1.43459 9.47416 1.31326 9.79483 1.20926C10.1242 1.09659 10.4925 1.04026 10.8998 1.04026C11.2898 1.04026 11.6365 1.09659 11.9398 1.20926C12.2518 1.31326 12.5162 1.46059 12.7328 1.65126C12.9495 1.84193 13.1142 2.06293 13.2268 2.31426C13.3395 2.55693 13.3958 2.81693 13.3958 3.09426C13.3958 3.45826 13.3092 3.77459 13.1358 4.04326C12.9712 4.30326 12.7675 4.52859 12.5248 4.71926C12.2822 4.90993 12.0308 5.06593 11.7708 5.18726C11.5195 5.30859 11.3115 5.40826 11.1468 5.48626C10.7568 5.65959 10.4318 5.82859 10.1718 5.99326C9.91183 6.15793 9.69949 6.32693 9.53483 6.50026C9.37016 6.67359 9.24449 6.86426 9.15783 7.07226C9.07983 7.28026 9.02349 7.5186 8.98883 7.78726H13.5388V8.59326H7.96183Z" fill="white"/>
</svg>
