<svg width="49" height="64" viewBox="0 0 49 64" fill="none" xmlns="http://www.w3.org/2000/svg">
<path d="M31.8125 10.0365H36.9113C38.4236 10.0365 39.6435 11.261 39.6435 12.7687V36.6958" stroke="#6034AF" stroke-width="2" stroke-miterlimit="10" stroke-linecap="round" stroke-linejoin="round"/>
<path d="M23.6524 59.933H3.73218C2.21988 59.933 1 58.7086 1 57.2009V12.7733C1 11.2656 2.22445 10.0411 3.73218 10.0411H8.83102" stroke="#6034AF" stroke-width="2" stroke-miterlimit="10" stroke-linecap="round" stroke-linejoin="round"/>
<path d="M29.6386 6.48197H26.9247C26.1389 6.48197 25.4535 5.95198 25.2525 5.19355C24.6814 3.00507 22.6894 1.3877 20.3227 1.3877C17.956 1.3877 15.964 3.00507 15.3929 5.19355C15.1964 5.95198 14.5066 6.48197 13.7207 6.48197H11.0068C9.8052 6.48197 8.83203 7.45514 8.83203 8.65674V11.1605C8.83203 12.3621 9.8052 13.3353 11.0068 13.3353H29.6386C30.8402 13.3353 31.8134 12.3621 31.8134 11.1605V8.65674C31.8134 7.45514 30.8402 6.48197 29.6386 6.48197Z" stroke="#6034AF" stroke-width="2" stroke-miterlimit="10" stroke-linejoin="round"/>
<path d="M20.3218 8.10849C21.2201 8.10849 21.9483 7.38028 21.9483 6.48198C21.9483 5.58368 21.2201 4.85547 20.3218 4.85547C19.4235 4.85547 18.6953 5.58368 18.6953 6.48198C18.6953 7.38028 19.4235 8.10849 20.3218 8.10849Z" fill="#6034AF"/>
<path d="M9.26953 31.7432H31.4696" stroke="#6034AF" stroke-width="2" stroke-miterlimit="10" stroke-linecap="round" stroke-linejoin="round"/>
<path d="M9.26953 22.6741H31.4696" stroke="#6034AF" stroke-width="2" stroke-miterlimit="10" stroke-linecap="round" stroke-linejoin="round"/>
<path d="M9.26953 50.0049H20.1251" stroke="#6034AF" stroke-width="2" stroke-miterlimit="10" stroke-linecap="round" stroke-linejoin="round"/>
<path d="M9.26953 40.8262H24.6574" stroke="#6034AF" stroke-width="2" stroke-miterlimit="10" stroke-linecap="round" stroke-linejoin="round"/>
<path d="M37.131 62.784C43.134 62.784 48.0003 57.9177 48.0003 51.9147C48.0003 45.9118 43.134 41.0454 37.131 41.0454C31.1281 41.0454 26.2617 45.9118 26.2617 51.9147C26.2617 57.9177 31.1281 62.784 37.131 62.784Z" stroke="#6034AF" stroke-width="2" stroke-miterlimit="10" stroke-linecap="round" stroke-linejoin="round"/>
<path d="M31.1836 52.0152L35.5606 56.5704L43.0855 49.0409" stroke="#6034AF" stroke-width="2" stroke-miterlimit="10" stroke-linecap="round" stroke-linejoin="round"/>
</svg>
