<svg width="22" height="17" viewBox="0 0 22 17" fill="none" xmlns="http://www.w3.org/2000/svg">
<path d="M20.4419 7.44223L3.88999 7.44223L9.51103 1.8212C9.61144 1.72298 9.69138 1.60583 9.74621 1.47651C9.80104 1.34719 9.82967 1.20828 9.83044 1.06782C9.83121 0.927363 9.80412 0.788148 9.75072 0.658235C9.69732 0.528321 9.61867 0.410291 9.51934 0.310979C9.42001 0.211667 9.30197 0.133046 9.17205 0.0796689C9.04213 0.0262917 8.9029 -0.000781207 8.76245 1.60522e-05C8.62199 0.000815219 8.48308 0.0294693 8.35378 0.0843189C8.22447 0.13917 8.10733 0.219126 8.00913 0.319562L0.575307 7.75338C0.376218 7.95253 0.264376 8.2226 0.264376 8.5042C0.264376 8.7858 0.376218 9.05587 0.575307 9.25502L8.00913 16.6888C8.10766 16.7876 8.22473 16.866 8.35362 16.9194C8.48252 16.9728 8.62069 17.0002 8.76021 17C8.97022 17 9.17549 16.9376 9.35009 16.821C9.52469 16.7043 9.66077 16.5384 9.74113 16.3444C9.82149 16.1504 9.84252 15.9369 9.80157 15.7309C9.76061 15.5249 9.6595 15.3357 9.51103 15.1872L3.88999 9.56618L20.4419 9.56618C20.7236 9.56618 20.9937 9.45429 21.1929 9.25513C21.392 9.05597 21.5039 8.78586 21.5039 8.5042C21.5039 8.22255 21.392 7.95243 21.1929 7.75327C20.9937 7.55411 20.7236 7.44223 20.4419 7.44223Z" fill="white"/>
</svg>
