<svg width="56" height="56" viewBox="0 0 56 56" fill="none" xmlns="http://www.w3.org/2000/svg">
<path d="M23.408 32.2621C23.4767 32.4092 23.5947 32.5245 23.7384 32.5916L23.7381 32.5921L38.6383 39.5455C39.1882 39.8264 39.8273 39.1903 39.5461 38.6379L32.5927 23.7377L32.592 23.738C32.5251 23.5943 32.4096 23.4761 32.2625 23.4076L17.3623 16.4541C17.1022 16.3326 16.7936 16.3871 16.5907 16.5901C16.3876 16.7932 16.3333 17.1016 16.4547 17.3618L23.4081 32.262L23.408 32.2621ZM37.514 37.5137L25.1992 31.7667L31.767 25.1989L37.514 37.5137ZM30.8013 24.2331L24.2334 30.8009L18.4865 18.4861L30.8013 24.2331Z" fill="#6034AF"/>
<path d="M28.0001 51.9024C41.1799 51.9024 51.9025 41.1798 51.9025 28C51.9025 14.8202 41.1799 4.09753 28.0001 4.09753C14.8203 4.09753 4.09766 14.8202 4.09766 28C4.09766 41.1798 14.8203 51.9024 28.0001 51.9024ZM12.0984 27.317H5.47471C5.83038 15.4319 15.4321 5.83026 27.3172 5.47472V12.0984C27.3172 12.4755 27.6228 12.7814 28.0001 12.7814C28.3773 12.7814 28.683 12.4755 28.683 12.0984V5.47472C40.5681 5.83039 50.1697 15.4321 50.5255 27.317H43.9018C43.5245 27.317 43.2188 27.6229 43.2188 28C43.2188 28.3771 43.5245 28.6829 43.9018 28.6829H50.5255C50.1698 40.568 40.5681 50.1697 28.683 50.5252V43.9015C28.683 43.5244 28.3773 43.2186 28.0001 43.2186C27.6228 43.2186 27.3172 43.5244 27.3172 43.9015V50.5252C15.4321 50.1696 5.83051 40.5679 5.47471 28.6829H12.0984C12.4757 28.6829 12.7813 28.3771 12.7813 28C12.7813 27.6229 12.4757 27.317 12.0984 27.317Z" fill="#6034AF"/>
<path d="M28 56C43.4392 56 56 43.4393 56 28C56 12.5607 43.4392 0 28 0C12.5608 0 0 12.5607 0 28C0 43.4393 12.5608 56 28 56ZM28 1.36585C42.6861 1.36585 54.6341 13.3139 54.6341 28C54.6341 42.6861 42.6861 54.6341 28 54.6341C13.3139 54.6341 1.36585 42.6861 1.36585 28C1.36585 13.3139 13.3139 1.36585 28 1.36585Z" fill="#6034AF"/>
</svg>
