<svg width="61" height="56" viewBox="0 0 61 56" fill="none" xmlns="http://www.w3.org/2000/svg">
<path d="M31.9712 33.5649C32.0697 33.1828 31.8412 32.7927 31.4591 32.6982C31.077 32.5997 30.6909 32.8282 30.5924 33.2064C29.7769 36.3501 30.7736 39.6515 33.1885 41.8182C33.3225 41.9404 33.4958 41.9994 33.6652 41.9994C33.8583 41.9994 34.0552 41.9207 34.1971 41.7631C34.461 41.4715 34.4334 41.0185 34.1419 40.7585C32.1249 38.9502 31.2897 36.1926 31.9712 33.5649Z" fill="#6034AF"/>
<path d="M59.0616 48.4879L50.0874 41.3022C52.7465 36.295 51.7853 29.9287 47.3769 25.9813C45.6751 24.4567 43.6738 23.4915 41.5819 23.0503V6.71692C41.5819 5.34596 40.463 4.22713 39.0921 4.22713H37.3548V3.08072C37.3548 1.38278 35.9759 0 34.274 0H3.08072C1.38278 0 0 1.38278 0 3.08072V45.8208C0 47.5188 1.38278 48.9016 3.08072 48.9016H4.22713V50.6389C4.22713 52.0138 5.34596 53.1326 6.71692 53.1326H39.0921C40.463 53.1326 41.5819 52.0138 41.5819 50.6389V47.7276C43.1616 47.3927 44.6823 46.7466 46.0572 45.809L54.1766 53.9442C54.87 54.6375 55.7879 55.0197 56.7649 55.0197C56.8003 55.0197 56.8358 55.0197 56.8673 55.0197C57.8837 54.9921 58.8174 54.5587 59.4989 53.8023C60.1765 53.0459 60.5035 52.0689 60.4208 51.0565C60.338 50.0322 59.8574 49.1261 59.0616 48.4879ZM47.2942 42.8583C43.1735 47.4557 36.0783 47.8458 31.4809 43.725C26.8834 39.6042 26.4934 32.5131 30.6142 27.9117C32.8243 25.4455 35.8853 24.1927 38.9621 24.1927C41.6213 24.1927 44.2962 25.1343 46.4275 27.045C51.025 31.1657 51.415 38.2569 47.2942 42.8583ZM3.08072 47.4754C2.16675 47.4754 1.42611 46.7309 1.42611 45.8208V3.08072C1.42611 2.17069 2.17069 1.42611 3.08072 1.42611H34.274C35.188 1.42611 35.9286 2.17069 35.9286 3.08072V4.22713H6.71692C5.34202 4.22713 4.22713 5.34596 4.22713 6.71692V47.4715H3.08072V47.4754ZM40.1597 50.635C40.1597 51.2219 39.683 51.7026 39.096 51.7026H6.71692C6.12993 51.7026 5.6493 51.2219 5.6493 50.635V6.71692C5.6493 6.12993 6.12599 5.65324 6.71692 5.65324H39.0921C39.6791 5.65324 40.1558 6.12993 40.1558 6.71692V22.8375C36.299 22.4712 32.3279 23.8618 29.5505 26.9583C24.9097 32.1467 25.347 40.14 30.5315 44.7847C32.9385 46.9397 35.9483 47.9994 38.9463 47.9994C39.3521 47.9994 39.7539 47.9758 40.1558 47.9364V50.635H40.1597ZM58.4392 52.8411C58.0255 53.306 57.4543 53.5699 56.8319 53.5857C56.2173 53.6132 55.6264 53.369 55.1891 52.9317L47.1997 44.9305C47.6015 44.5838 47.9915 44.2135 48.354 43.8077C48.7164 43.4019 49.0394 42.9725 49.3388 42.5352L58.1674 49.6028C58.6519 49.9889 58.9474 50.5443 58.9986 51.1628C59.0538 51.7814 58.8568 52.3802 58.4392 52.8411Z" fill="#6034AF"/>
<path d="M11.4006 11.5035H34.4075C34.8014 11.5035 35.1205 11.1844 35.1205 10.7904C35.1205 10.3965 34.8014 10.0774 34.4075 10.0774H11.4006C11.0066 10.0774 10.6875 10.3965 10.6875 10.7904C10.6914 11.1844 11.0066 11.5035 11.4006 11.5035Z" fill="#6034AF"/>
<path d="M11.4006 18.6577H34.4075C34.8014 18.6577 35.1205 18.3386 35.1205 17.9446C35.1205 17.5507 34.8014 17.2316 34.4075 17.2316H11.4006C11.0066 17.2316 10.6875 17.5507 10.6875 17.9446C10.6914 18.3386 11.0066 18.6577 11.4006 18.6577Z" fill="#6034AF"/>
<path d="M11.4006 25.8119H29.2309C29.6249 25.8119 29.944 25.4928 29.944 25.0988C29.944 24.7048 29.6249 24.3857 29.2309 24.3857H11.4006C11.0066 24.3857 10.6875 24.7048 10.6875 25.0988C10.6875 25.4928 11.0066 25.8119 11.4006 25.8119Z" fill="#6034AF"/>
<path d="M11.4006 32.9662H25.0156C25.4096 32.9662 25.7287 32.6471 25.7287 32.2531C25.7287 31.8591 25.4096 31.54 25.0156 31.54H11.4006C11.0066 31.54 10.6875 31.8591 10.6875 32.2531C10.6875 32.6471 11.0066 32.9662 11.4006 32.9662Z" fill="#6034AF"/>
<path d="M11.4006 40.1203H25.4726C25.8666 40.1203 26.1857 39.8012 26.1857 39.4073C26.1857 39.0133 25.8666 38.6942 25.4726 38.6942H11.4006C11.0066 38.6942 10.6875 39.0133 10.6875 39.4073C10.6875 39.8012 11.0066 40.1203 11.4006 40.1203Z" fill="#6034AF"/>
<path d="M30.2395 45.8485H11.4006C11.0066 45.8485 10.6875 46.1676 10.6875 46.5616C10.6875 46.9555 11.0066 47.2746 11.4006 47.2746H30.2355C30.6295 47.2746 30.9486 46.9555 30.9486 46.5616C30.9486 46.1676 30.6334 45.8485 30.2395 45.8485Z" fill="#6034AF"/>
</svg>
