<svg width="22" height="17" viewBox="0 0 22 17" fill="none" xmlns="http://www.w3.org/2000/svg">
<path d="M1.06197 9.55777L17.6139 9.55777L11.9929 15.1788C11.8925 15.277 11.8125 15.3942 11.7577 15.5235C11.7029 15.6528 11.6742 15.7917 11.6735 15.9322C11.6727 16.0726 11.6998 16.2119 11.7532 16.3418C11.8066 16.4717 11.8852 16.5897 11.9846 16.689C12.0839 16.7883 12.2019 16.867 12.3319 16.9203C12.4618 16.9737 12.601 17.0008 12.7415 17C12.8819 16.9992 13.0208 16.9705 13.1501 16.9157C13.2794 16.8608 13.3966 16.7809 13.4948 16.6804L20.9286 9.24661C21.1277 9.04746 21.2395 8.7774 21.2395 8.4958C21.2395 8.2142 21.1277 7.94413 20.9286 7.74498L13.4948 0.31116C13.3963 0.212378 13.2792 0.134038 13.1503 0.0806391C13.0214 0.0272406 12.8832 -0.000163791 12.7437 7.36445e-07C12.5337 4.55776e-05 12.3284 0.0623534 12.1538 0.179048C11.9792 0.295742 11.8431 0.461583 11.7628 0.655606C11.6824 0.849628 11.6614 1.06312 11.7023 1.26909C11.7433 1.47507 11.8444 1.66427 11.9929 1.81279L17.6139 7.43382L1.06197 7.43382C0.780321 7.43382 0.510204 7.54571 0.311045 7.74487C0.111886 7.94403 0 8.21414 0 8.4958C0 8.77745 0.111886 9.04757 0.311045 9.24673C0.510204 9.44589 0.780321 9.55777 1.06197 9.55777Z" fill="white"/>
</svg>
