<svg width="38" height="35" viewBox="0 0 38 35" fill="none" xmlns="http://www.w3.org/2000/svg">
<path d="M14.4027 34.0147C12.582 34.0147 10.8221 33.8326 9.12279 33.4685C7.42352 32.9829 5.90631 32.3154 4.57116 31.4657C3.23602 30.4947 2.14363 29.2809 1.29399 27.8244C0.44435 26.2465 0.0195312 24.4259 0.0195312 22.3625V0.514648H10.5793V20.7239C10.5793 22.3018 11.0041 23.3335 11.8538 23.819C12.7034 24.3045 13.553 24.5473 14.4027 24.5473V34.0147ZM37.707 34.0147C35.8864 34.0147 34.1264 33.8326 32.4271 33.4685C30.7279 32.9829 29.2107 32.3154 27.8755 31.4657C26.5404 30.4947 25.448 29.2809 24.5983 27.8244C23.7487 26.2465 23.3239 24.4259 23.3239 22.3625V0.514648H33.8837V20.7239C33.8837 22.3018 34.3085 23.3335 35.1581 23.819C36.0078 24.3045 36.8574 24.5473 37.707 24.5473V34.0147Z" fill="#040404"/>
</svg>
