<svg width="22" height="34" viewBox="0 0 22 34" fill="none" xmlns="http://www.w3.org/2000/svg">
<path d="M9.88705 33.5475C10.1823 33.8372 10.5826 34 11 34C11.4174 34 11.8177 33.8372 12.113 33.5475L21.5581 24.2747C21.8449 23.9832 22.0035 23.5928 21.9999 23.1876C21.9964 22.7824 21.8308 22.3948 21.5389 22.1082C21.2471 21.8217 20.8522 21.6591 20.4395 21.6556C20.0267 21.6521 19.6291 21.8079 19.3322 22.0894L12.5742 28.7241V1.54547C12.5742 1.13559 12.4083 0.742489 12.1131 0.452657C11.8179 0.162826 11.4175 0 11 0C10.5825 0 10.1821 0.162826 9.88688 0.452657C9.59166 0.742489 9.42581 1.13559 9.42581 1.54547V28.7241L2.6678 22.0894C2.37091 21.8079 1.97326 21.6521 1.56051 21.6556C1.14777 21.6591 0.752939 21.8217 0.461071 22.1082C0.169203 22.3948 0.00364618 22.7824 5.95083e-05 23.1876C-0.00352716 23.5928 0.155143 23.9832 0.441895 24.2747L9.88705 33.5475Z" fill="white"/>
</svg>
